# xmcd CD database file
#
# Track frame offsets:
#	150
#	15242
#	31473
#	46188
#	57523
#	76890
#	92468
#	104300
#	113870
#	125318
#
# Disc length: 1852 seconds
#
# Revision: 3
# Processed by: cddbd v1.4PL0 Copyright (c) Steve Scherf et al.
# Submitted via: CDex 1.50Beta6
#
DISCID=6e073a0a
DTITLE=George Strait - Lead On
DYEAR=1994
DGENRE=Country
TTITLE0=You Can't Make A Heart Love Somebody
TTITLE1=Adalida
TTITLE2=I Met A Friend Of Yours Today
TTITLE3=Nobody Has To Get Hurt
TTITLE4=Down Louisiana Way
TTITLE5=Lead On
TTITLE6=What Am I Waiting For
TTITLE7=The Big One
TTITLE8=I'll Always Be Loving You
TTITLE9=No One But You
EXTD=YEAR: 1994
EXTT0=
EXTT1=
EXTT2=
EXTT3=
EXTT4=
EXTT5=
EXTT6=
EXTT7=
EXTT8=
EXTT9=
PLAYORDER=
